<?xml version="1.0" encoding="UTF-8" standalone="no"?><svg xmlns="http://www.w3.org/2000/svg" xmlns:xlink="http://www.w3.org/1999/xlink" contentScriptType="application/ecmascript" contentStyleType="text/css" height="366px" preserveAspectRatio="none" style="width:364px;height:366px;background:#FFFFFF;" version="1.1" viewBox="0 0 364 366" width="364px" zoomAndPan="magnify"><defs><filter height="300%" id="fot79xc34lngx" width="300%" x="-1" y="-1"><feGaussianBlur result="blurOut" stdDeviation="2.0"/><feColorMatrix in="blurOut" result="blurOut2" type="matrix" values="0 0 0 0 0 0 0 0 0 0 0 0 0 0 0 0 0 0 .4 0"/><feOffset dx="4.0" dy="4.0" in="blurOut2" result="blurOut3"/><feBlend in="SourceGraphic" in2="blurOut3" mode="normal"/></filter></defs><g><ellipse cx="125.72" cy="16" fill="#000000" filter="url(#fot79xc34lngx)" rx="10" ry="10" style="stroke:none;stroke-width:1.0;"/><g id="Define"><rect fill="#FEFECE" filter="url(#fot79xc34lngx)" height="92.1719" rx="12.5" ry="12.5" style="stroke:#A80036;stroke-width:1.5;" width="167" x="42.22" y="118"/><line style="stroke:#A80036;stroke-width:1.5;" x1="42.22" x2="209.22" y1="144.2969" y2="144.2969"/><text fill="#000000" font-family="sans-serif" font-size="14" lengthAdjust="spacing" textLength="45" x="103.22" y="135.9951">Define</text><text fill="#000000" font-family="sans-serif" font-size="12" lengthAdjust="spacing" textLength="147" x="47.22" y="160.4355">Parameterized contract</text><text fill="#000000" font-family="sans-serif" font-size="12" lengthAdjust="spacing" textLength="78" x="47.22" y="174.4043">Amount (Int)</text><text fill="#000000" font-family="sans-serif" font-size="12" lengthAdjust="spacing" textLength="84" x="47.22" y="188.373">Duration (Int)</text><text fill="#000000" font-family="sans-serif" font-size="12" lengthAdjust="spacing" textLength="38" x="47.22" y="202.3418">Token</text></g><g id="Stake"><rect fill="#FEFECE" filter="url(#fot79xc34lngx)" height="50" rx="12.5" ry="12.5" style="stroke:#A80036;stroke-width:1.5;" width="59" x="41.22" y="302"/><line style="stroke:#A80036;stroke-width:1.5;" x1="41.22" x2="100.22" y1="328.2969" y2="328.2969"/><text fill="#000000" font-family="sans-serif" font-size="14" lengthAdjust="spacing" textLength="39" x="51.22" y="319.9951">Stake</text></g><ellipse cx="235.72" cy="327" filter="url(#fot79xc34lngx)" rx="10" ry="10" style="stroke:#000000;stroke-width:1.0;fill:none;"/><ellipse cx="236.22" cy="327.5" fill="#000000" rx="6" ry="6" style="stroke:none;stroke-width:1.0;"/><!--MD5=[73e95e800877892a75c751669cf146c6]
link *start to Define--><path d="M125.72,26.13 C125.72,43.26 125.72,81.32 125.72,112.97 " fill="none" id="*start-to-Define" style="stroke:#A80036;stroke-width:1.0;"/><polygon fill="#A80036" points="125.72,117.99,129.72,108.99,125.72,112.99,121.72,108.99,125.72,117.99" style="stroke:#A80036;stroke-width:1.0;"/><text fill="#000000" font-family="sans-serif" font-size="13" lengthAdjust="spacing" textLength="48" x="217.72" y="69.0669">Creator</text><text fill="#000000" font-family="sans-serif" font-size="13" font-weight="bold" lengthAdjust="spacing" textLength="230" x="126.72" y="84.1997">Define(amount duration token)</text><!--MD5=[e542a8eb10f61d73522af54b1d806013]
link Define to Stake--><path d="M42.12,206.1 C30.3,215.57 19.79,226.82 12.72,240 C6,252.53 7.04,258.96 12.72,272 C17.96,284.03 27.34,294.59 37.05,303.1 " fill="none" id="Define-to-Stake" style="stroke:#A80036;stroke-width:1.0;"/><polygon fill="#A80036" points="40.93,306.38,36.6448,297.5123,37.1136,303.1496,31.4762,303.6185,40.93,306.38" style="stroke:#A80036;stroke-width:1.0;"/><text fill="#000000" font-family="sans-serif" font-size="13" lengthAdjust="spacing" textLength="68" x="13.72" y="253.0669">Subscriber</text><text fill="#000000" font-family="sans-serif" font-size="13" font-weight="bold" lengthAdjust="spacing" textLength="42" x="24.22" y="268.1997">Stake</text><!--MD5=[4bb4706a4d66496497df72ecbf73e2ca]
link Stake to Define--><path d="M78.94,301.94 C86.73,279.12 98.69,244.13 108.56,215.23 " fill="none" id="Stake-to-Define" style="stroke:#A80036;stroke-width:1.0;"/><polygon fill="#A80036" points="110.25,210.28,103.5568,217.505,108.6346,215.0119,111.1278,220.0897,110.25,210.28" style="stroke:#A80036;stroke-width:1.0;"/><text fill="#000000" font-family="sans-serif" font-size="13" lengthAdjust="spacing" textLength="68" x="101.72" y="253.0669">Subscriber</text><text fill="#000000" font-family="sans-serif" font-size="13" font-weight="bold" lengthAdjust="spacing" textLength="34" x="118.72" y="268.1997">Burn</text><!--MD5=[2e4619efcef709c3cfb86ef2ca455846]
link Define to *end--><path d="M157.89,210.06 C164.82,219.89 172.06,230.26 178.72,240 C196.48,265.94 216.68,296.73 227.62,313.53 " fill="none" id="Define-to-*end" style="stroke:#A80036;stroke-width:1.0;"/><polygon fill="#A80036" points="230.46,317.88,228.9112,308.1537,227.7361,313.6871,222.2026,312.512,230.46,317.88" style="stroke:#A80036;stroke-width:1.0;"/><text fill="#000000" font-family="sans-serif" font-size="13" lengthAdjust="spacing" textLength="48" x="200.72" y="253.0669">Creator</text><text fill="#000000" font-family="sans-serif" font-size="13" lengthAdjust="spacing" textLength="50" x="199.72" y="268.1997">Destroy</text><!--MD5=[d7f5d0879f3f9be58e9c1899a7a44224]
@startuml
[*] - -> Define: Creator\n**Define(amount duration token)**
Define: Parameterized contract
Define: Amount (Int)
Define: Duration (Int)
Define: Token

Define - -> Stake: Subscriber\n**Stake **

Stake - -> Define: Subscriber\n**Burn**

Define - ->[*]: Creator\nDestroy
@enduml

PlantUML version 1.2021.16(Wed Dec 08 17:25:22 UTC 2021)
(GPL source distribution)
Java Runtime: OpenJDK Runtime Environment
JVM: OpenJDK 64-Bit Server VM
Default Encoding: UTF-8
Language: en
Country: null
--></g></svg>